/* XPM */
static char *n_tex[] = {
"16 16 3 1",
/* colors */
"# c #000000",
". c #FFFFFF",
"x c #444444",
/* pixels */
"####....####....",
"####....####....",
"####....####....",
"####....####....",
"....####....####",
"....####....####",
"....####....####",
"....####....####",
"####....####....",
"####....####....",
"####....####....",
"####....####....",
"....####....####",
"....####....####",
"....####....####",
"....####....####"
};
