/* XPM */
static char *e_tex[] = {
"16 16 3 1",
/* colors */
"G c #00FF00",
". c #FFFFFF",
"x c #008800",
/* pixels */
"GGGG....GGGG....",
"GGGG....GGGG....",
"GGGG....GGGG....",
"GGGG....GGGG....",
"....GGGG....GGGG",
"....GGGG....GGGG",
"....GGGG....GGGG",
"....GGGG....GGGG",
"GGGG....GGGG....",
"GGGG....GGGG....",
"GGGG....GGGG....",
"GGGG....GGGG....",
"....GGGG....GGGG",
"....GGGG....GGGG",
"....GGGG....GGGG",
"....GGGG....GGGG"
};
